<mxfile host="app.diagrams.net" agent="Mozilla/5.0 (Windows NT 10.0; Win64; x64) AppleWebKit/537.36 (KHTML, like Gecko) Chrome/130.0.0.0 Safari/537.36" version="24.8.4">
  <diagram name="Сторінка-1" id="AStdyDTmx05A2W5jAg5y">
    <mxGraphModel dx="1384" dy="612" grid="1" gridSize="10" guides="1" tooltips="1" connect="1" arrows="1" fold="1" page="1" pageScale="1" pageWidth="827" pageHeight="1169" math="0" shadow="0">
      <root>
        <mxCell id="0" />
        <mxCell id="1" parent="0" />
        <mxCell id="pNXdlPUKiJ3Dc3GaKAaE-1" value="Start" style="ellipse;whiteSpace=wrap;html=1;" vertex="1" parent="1">
          <mxGeometry x="140" y="30" width="110" height="40" as="geometry" />
        </mxCell>
        <mxCell id="pNXdlPUKiJ3Dc3GaKAaE-2" value="End" style="ellipse;whiteSpace=wrap;html=1;" vertex="1" parent="1">
          <mxGeometry x="140" y="460" width="110" height="40" as="geometry" />
        </mxCell>
        <mxCell id="pNXdlPUKiJ3Dc3GaKAaE-3" value="Input n" style="shape=parallelogram;perimeter=parallelogramPerimeter;whiteSpace=wrap;html=1;fixedSize=1;" vertex="1" parent="1">
          <mxGeometry x="141.25" y="100" width="107.5" height="30" as="geometry" />
        </mxCell>
        <mxCell id="pNXdlPUKiJ3Dc3GaKAaE-5" value="" style="edgeStyle=orthogonalEdgeStyle;rounded=0;orthogonalLoop=1;jettySize=auto;html=1;" edge="1" parent="1" source="pNXdlPUKiJ3Dc3GaKAaE-6" target="pNXdlPUKiJ3Dc3GaKAaE-2">
          <mxGeometry relative="1" as="geometry" />
        </mxCell>
        <mxCell id="pNXdlPUKiJ3Dc3GaKAaE-6" value="Output sum" style="shape=parallelogram;perimeter=parallelogramPerimeter;whiteSpace=wrap;html=1;fixedSize=1;" vertex="1" parent="1">
          <mxGeometry x="132.5" y="390" width="125" height="40" as="geometry" />
        </mxCell>
        <mxCell id="pNXdlPUKiJ3Dc3GaKAaE-27" value="" style="edgeStyle=orthogonalEdgeStyle;rounded=0;orthogonalLoop=1;jettySize=auto;html=1;" edge="1" parent="1" source="pNXdlPUKiJ3Dc3GaKAaE-7" target="pNXdlPUKiJ3Dc3GaKAaE-26">
          <mxGeometry relative="1" as="geometry" />
        </mxCell>
        <mxCell id="pNXdlPUKiJ3Dc3GaKAaE-7" value="function factorial" style="shape=process;whiteSpace=wrap;html=1;backgroundOutline=1;" vertex="1" parent="1">
          <mxGeometry x="126.25" y="160" width="137.5" height="40" as="geometry" />
        </mxCell>
        <mxCell id="pNXdlPUKiJ3Dc3GaKAaE-8" value="" style="endArrow=classic;html=1;rounded=0;exitX=0.5;exitY=1;exitDx=0;exitDy=0;entryX=0.5;entryY=0;entryDx=0;entryDy=0;" edge="1" parent="1" source="pNXdlPUKiJ3Dc3GaKAaE-1" target="pNXdlPUKiJ3Dc3GaKAaE-3">
          <mxGeometry width="50" height="50" relative="1" as="geometry">
            <mxPoint x="300" y="150" as="sourcePoint" />
            <mxPoint x="350" y="100" as="targetPoint" />
          </mxGeometry>
        </mxCell>
        <mxCell id="pNXdlPUKiJ3Dc3GaKAaE-9" value="" style="endArrow=classic;html=1;rounded=0;exitX=0.5;exitY=1;exitDx=0;exitDy=0;entryX=0.5;entryY=0;entryDx=0;entryDy=0;" edge="1" parent="1" source="pNXdlPUKiJ3Dc3GaKAaE-3">
          <mxGeometry width="50" height="50" relative="1" as="geometry">
            <mxPoint x="205" y="80" as="sourcePoint" />
            <mxPoint x="195" y="170" as="targetPoint" />
          </mxGeometry>
        </mxCell>
        <mxCell id="pNXdlPUKiJ3Dc3GaKAaE-33" value="" style="edgeStyle=orthogonalEdgeStyle;rounded=0;orthogonalLoop=1;jettySize=auto;html=1;" edge="1" parent="1" source="pNXdlPUKiJ3Dc3GaKAaE-12" target="pNXdlPUKiJ3Dc3GaKAaE-14">
          <mxGeometry relative="1" as="geometry" />
        </mxCell>
        <mxCell id="pNXdlPUKiJ3Dc3GaKAaE-12" value="factorial" style="ellipse;whiteSpace=wrap;html=1;" vertex="1" parent="1">
          <mxGeometry x="404" y="60" width="140" height="60" as="geometry" />
        </mxCell>
        <mxCell id="pNXdlPUKiJ3Dc3GaKAaE-34" value="" style="edgeStyle=orthogonalEdgeStyle;rounded=0;orthogonalLoop=1;jettySize=auto;html=1;" edge="1" parent="1" source="pNXdlPUKiJ3Dc3GaKAaE-14" target="pNXdlPUKiJ3Dc3GaKAaE-32">
          <mxGeometry relative="1" as="geometry" />
        </mxCell>
        <mxCell id="pNXdlPUKiJ3Dc3GaKAaE-35" value="NO" style="edgeLabel;html=1;align=center;verticalAlign=middle;resizable=0;points=[];" vertex="1" connectable="0" parent="pNXdlPUKiJ3Dc3GaKAaE-34">
          <mxGeometry x="-0.2655" y="-1" relative="1" as="geometry">
            <mxPoint as="offset" />
          </mxGeometry>
        </mxCell>
        <mxCell id="pNXdlPUKiJ3Dc3GaKAaE-38" value="" style="edgeStyle=orthogonalEdgeStyle;rounded=0;orthogonalLoop=1;jettySize=auto;html=1;" edge="1" parent="1" source="pNXdlPUKiJ3Dc3GaKAaE-14" target="pNXdlPUKiJ3Dc3GaKAaE-17">
          <mxGeometry relative="1" as="geometry" />
        </mxCell>
        <mxCell id="pNXdlPUKiJ3Dc3GaKAaE-40" value="YES" style="edgeLabel;html=1;align=center;verticalAlign=middle;resizable=0;points=[];" vertex="1" connectable="0" parent="pNXdlPUKiJ3Dc3GaKAaE-38">
          <mxGeometry x="-0.1358" y="2" relative="1" as="geometry">
            <mxPoint as="offset" />
          </mxGeometry>
        </mxCell>
        <mxCell id="pNXdlPUKiJ3Dc3GaKAaE-14" value="n &amp;gt;= 2" style="rhombus;whiteSpace=wrap;html=1;labelBackgroundColor=none;" vertex="1" parent="1">
          <mxGeometry x="318" y="160" width="120" height="60" as="geometry" />
        </mxCell>
        <mxCell id="pNXdlPUKiJ3Dc3GaKAaE-17" value="return n * factorial (n-1)" style="ellipse;whiteSpace=wrap;html=1;" vertex="1" parent="1">
          <mxGeometry x="310" y="260" width="136" height="40" as="geometry" />
        </mxCell>
        <mxCell id="pNXdlPUKiJ3Dc3GaKAaE-29" value="" style="edgeStyle=orthogonalEdgeStyle;rounded=0;orthogonalLoop=1;jettySize=auto;html=1;" edge="1" parent="1" source="pNXdlPUKiJ3Dc3GaKAaE-26" target="pNXdlPUKiJ3Dc3GaKAaE-28">
          <mxGeometry relative="1" as="geometry" />
        </mxCell>
        <mxCell id="pNXdlPUKiJ3Dc3GaKAaE-26" value="n = 1, n &amp;lt;= 13, n++" style="rhombus;whiteSpace=wrap;html=1;" vertex="1" parent="1">
          <mxGeometry x="113.75" y="230" width="162.5" height="60" as="geometry" />
        </mxCell>
        <mxCell id="pNXdlPUKiJ3Dc3GaKAaE-30" value="" style="edgeStyle=orthogonalEdgeStyle;rounded=0;orthogonalLoop=1;jettySize=auto;html=1;" edge="1" parent="1" source="pNXdlPUKiJ3Dc3GaKAaE-28" target="pNXdlPUKiJ3Dc3GaKAaE-6">
          <mxGeometry relative="1" as="geometry" />
        </mxCell>
        <mxCell id="pNXdlPUKiJ3Dc3GaKAaE-28" value="sum += log ((double) factorial(n)) / pow (n, 2)" style="rounded=0;whiteSpace=wrap;html=1;" vertex="1" parent="1">
          <mxGeometry x="70" y="320" width="250" height="40" as="geometry" />
        </mxCell>
        <mxCell id="pNXdlPUKiJ3Dc3GaKAaE-31" value="" style="endArrow=classic;html=1;rounded=0;exitX=0;exitY=0.5;exitDx=0;exitDy=0;entryX=0;entryY=0.5;entryDx=0;entryDy=0;" edge="1" parent="1" source="pNXdlPUKiJ3Dc3GaKAaE-28" target="pNXdlPUKiJ3Dc3GaKAaE-26">
          <mxGeometry width="50" height="50" relative="1" as="geometry">
            <mxPoint x="370" y="310" as="sourcePoint" />
            <mxPoint x="420" y="260" as="targetPoint" />
            <Array as="points">
              <mxPoint x="50" y="340" />
              <mxPoint x="50" y="260" />
            </Array>
          </mxGeometry>
        </mxCell>
        <mxCell id="pNXdlPUKiJ3Dc3GaKAaE-39" value="" style="edgeStyle=orthogonalEdgeStyle;rounded=0;orthogonalLoop=1;jettySize=auto;html=1;" edge="1" parent="1" source="pNXdlPUKiJ3Dc3GaKAaE-32" target="pNXdlPUKiJ3Dc3GaKAaE-37">
          <mxGeometry relative="1" as="geometry" />
        </mxCell>
        <mxCell id="pNXdlPUKiJ3Dc3GaKAaE-41" value="YES" style="edgeLabel;html=1;align=center;verticalAlign=middle;resizable=0;points=[];" vertex="1" connectable="0" parent="pNXdlPUKiJ3Dc3GaKAaE-39">
          <mxGeometry x="-0.2608" y="-1" relative="1" as="geometry">
            <mxPoint as="offset" />
          </mxGeometry>
        </mxCell>
        <mxCell id="pNXdlPUKiJ3Dc3GaKAaE-32" value="n &amp;gt;= 2" style="rhombus;whiteSpace=wrap;html=1;labelBackgroundColor=none;" vertex="1" parent="1">
          <mxGeometry x="494" y="160" width="120" height="60" as="geometry" />
        </mxCell>
        <mxCell id="pNXdlPUKiJ3Dc3GaKAaE-37" value="return n" style="ellipse;whiteSpace=wrap;html=1;" vertex="1" parent="1">
          <mxGeometry x="489" y="260" width="130" height="40" as="geometry" />
        </mxCell>
      </root>
    </mxGraphModel>
  </diagram>
</mxfile>
